<mxfile host="app.diagrams.net" modified="2023-09-07T03:42:31.319Z" agent="Mozilla/5.0 (X11; Linux x86_64) AppleWebKit/537.36 (KHTML, like Gecko) Chrome/111.0.0.0 Safari/537.36" etag="h3punG2p5vmiknViJvv9" version="21.6.5" type="github">
  <diagram name="AI摄像头框图" id="5MH4m4dyNw_swEw2ubTH">
    <mxGraphModel dx="1674" dy="802" grid="1" gridSize="10" guides="1" tooltips="1" connect="1" arrows="1" fold="1" page="1" pageScale="1" pageWidth="850" pageHeight="1100" math="0" shadow="0">
      <root>
        <mxCell id="0" />
        <mxCell id="1" parent="0" />
      </root>
    </mxGraphModel>
  </diagram>
</mxfile>
